# xmcd CD database file
#
# Track frame offsets:
#	182
#	18207
#	38525
#	58202
#
# Disc length: 1043 seconds
#
# Revision: 3
# Processed by: cddbd v1.5.1PL0 Copyright (c) Steve Scherf et al.
# Submitted via: CDex 1.40Beta9
#
DISCID=27041104
DTITLE=Hanson - Mmm Bop - Maxi Single CD
DYEAR=1997
DGENRE=Pop
TTITLE0=Mmm Bop (Radio Version)
TTITLE1=Mmm Bop (Dust Brothers Mix)
TTITLE2=Mmm Bop (Dub Version)
TTITLE3=Mmm Bop (Album Version)
EXTD=YEAR: 1997 ID3G: 13
EXTT0=
EXTT1=
EXTT2=
EXTT3=
PLAYORDER=
